<svg width="60" height="60" viewBox="0 0 60 60" fill="none" xmlns="http://www.w3.org/2000/svg">
<path d="M37.8011 3.84563C36.1895 2.53313 33.0967 1.875 29.9992 1.875C26.9036 1.875 23.8108 2.53219 22.1992 3.84469V23.9166H37.802V3.84563H37.8011Z" fill="#E6C23E"/>
<path d="M54.7355 25.8514L55.2342 26.1177C54.7411 16.4802 50.3658 8.74109 39.3164 6.06641L39.3173 22.3067C45.7327 22.9405 51.1664 24.2023 54.7355 25.8514Z" fill="#1E2A5E"/>
<path d="M20.6834 22.3067L20.6853 6.06641C9.63406 8.74109 5.25875 16.4802 4.76562 26.1186L5.26438 25.8523C8.83438 24.2023 14.2681 22.9405 20.6834 22.3067Z" fill="#1E2A5E"/>
<path d="M54.375 33.2684V30.0002H58.125C58.125 28.7393 57.1575 27.5477 55.4691 26.4743C53.2725 25.9362 46.9134 24.4821 39.3169 23.7246V25.3343H20.6841V23.7246C13.0856 24.4821 6.72281 25.9352 4.53 26.4762C2.84156 27.5477 1.875 28.7393 1.875 30.0002H5.625V33.2684C4.215 33.9312 2.8125 35.4284 2.8125 38.4377C2.8125 42.1699 4.97063 43.5996 6.6225 43.9624C7.75406 51.8271 24.4538 58.1252 30 58.1252C35.5463 58.1252 52.2459 51.8271 53.3775 43.9624C55.0294 43.5996 57.1875 42.1699 57.1875 38.4377C57.1875 35.4284 55.785 33.9312 54.375 33.2684ZM52.5 42.1877H51.5625V43.1252C51.5625 49.7224 35.7084 56.2502 30 56.2502C24.2916 56.2502 8.4375 49.7224 8.4375 43.1252V42.1877H7.5C7.38563 42.1877 4.6875 42.1446 4.6875 38.4377C4.6875 34.8434 7.21969 34.6934 7.5 34.6877H8.4375V30.0002H30H51.5625V34.6877H52.5C52.6144 34.6877 55.3125 34.7309 55.3125 38.4377C55.3125 42.0321 52.7803 42.1821 52.5 42.1877Z" fill="#1E2A5E"/>
<path d="M23.4375 36.1487C23.4375 35.6312 23.3316 35.1427 23.1609 34.6843C24.1266 35.3846 24.9038 36.3268 25.3125 37.553C25.3125 30.0549 12.1875 30.0549 12.1875 36.6174C12.7988 35.0874 14.2144 34.0674 15.9028 33.5687C15.3209 34.303 15.003 35.2117 15 36.1487C15 37.2675 15.4445 38.3406 16.2356 39.1318C17.0268 39.9229 18.0999 40.3674 19.2188 40.3674C20.3376 40.3674 21.4107 39.9229 22.2019 39.1318C22.993 38.3406 23.4375 37.2675 23.4375 36.1487Z" fill="#1E2A5E"/>
<path d="M34.6875 37.553C35.0963 36.3268 35.8734 35.3846 36.8391 34.6843C36.6598 35.1519 36.5661 35.6479 36.5625 36.1487C36.5625 37.2675 37.007 38.3406 37.7981 39.1318C38.5893 39.9229 39.6624 40.3674 40.7813 40.3674C41.9001 40.3674 42.9732 39.9229 43.7644 39.1318C44.5555 38.3406 45 37.2675 45 36.1487C44.9969 35.2117 44.6789 34.3031 44.0972 33.5687C45.7856 34.0674 47.2013 35.0874 47.8125 36.6174C47.8125 30.0549 34.6875 30.0549 34.6875 37.553Z" fill="#1E2A5E"/>
<path d="M37.5928 46.6016H22.4062C21.5625 46.6016 21.5625 47.405 21.5625 47.405C21.5625 50.6206 25.7812 52.2266 30 52.2266C34.2188 52.2266 38.4375 50.6206 38.4375 47.405C38.4375 47.405 38.4366 46.6016 37.5928 46.6016Z" fill="#1E2A5E"/>
</svg>
