<svg width="38" height="28" viewBox="0 0 38 28" fill="none" xmlns="http://www.w3.org/2000/svg">
<path d="M28.0078 23H23.707C23.6445 23 23.6133 22.9609 23.6133 22.8828L23.6602 6.39453C23.6602 6.33203 23.6914 6.30078 23.7539 6.30078H28.3711C29.2695 6.30078 30.0859 6.51953 30.8203 6.95703C31.5391 7.39453 32.1055 7.97656 32.5195 8.70312C32.9336 9.42188 33.1406 10.2031 33.1406 11.0469C33.1406 11.7344 32.9844 12.375 32.6719 12.9688C32.3594 13.5625 31.9883 14.043 31.5586 14.4102C32.0195 14.8711 32.3789 15.4062 32.6367 16.0156C32.8945 16.625 33.0234 17.2656 33.0234 17.9375C33.0234 18.8672 32.8008 19.7148 32.3555 20.4805C31.9023 21.2461 31.2969 21.8594 30.5391 22.3203C29.7812 22.7734 28.9375 23 28.0078 23ZM28.3711 9.14844H26.543V12.9219H28.3711C28.9258 12.9219 29.375 12.7266 29.7188 12.3359C30.0625 11.9375 30.2344 11.5078 30.2344 11.0469C30.2344 10.5391 30.0508 10.0977 29.6836 9.72266C29.3164 9.33984 28.8789 9.14844 28.3711 9.14844ZM28.0078 15.8281H26.543L26.5195 20.0703H28.0078C28.5859 20.0703 29.082 19.8594 29.4961 19.4375C29.9102 19.0156 30.1172 18.5156 30.1172 17.9375C30.1172 17.3594 29.9102 16.8633 29.4961 16.4492C29.082 16.0352 28.5859 15.8281 28.0078 15.8281Z" fill="#33015A"/>
<path d="M20.2344 23H22.9531C23.0156 23 23.0469 22.9609 23.0469 22.8828L23 6.39453C23 6.33203 22.9688 6.30078 22.9062 6.30078H18.0547C17.1875 6.30078 16.3906 6.51172 15.6641 6.93359C14.9375 7.35547 14.3594 7.92187 13.9297 8.63281C13.4922 9.34375 13.2734 10.1484 13.2734 11.0469C13.2734 11.6328 13.3633 12.1641 13.543 12.6406C13.7227 13.1172 13.9336 13.5195 14.1758 13.8477C14.4102 14.1758 14.625 14.418 14.8203 14.5742C13.9531 15.5352 13.5195 16.6641 13.5195 17.9609L13.4961 22.8828C13.4961 22.9609 13.5352 23 13.6133 23H16.332C16.3945 23 16.4258 22.9766 16.4258 22.9297V17.9609C16.4258 17.3828 16.6289 16.8828 17.0352 16.4609C17.4414 16.0391 17.9414 15.8281 18.5352 15.8281H20.1172L20.1406 22.8828C20.1406 22.9609 20.1719 23 20.2344 23ZM18.0547 9.17188H20.1172V12.9453H18.0547C17.5625 12.9453 17.125 12.7617 16.7422 12.3945C16.3516 12.0273 16.1562 11.5781 16.1562 11.0469C16.1562 10.5391 16.3438 10.1016 16.7188 9.73438C17.0938 9.35938 17.5391 9.17188 18.0547 9.17188Z" fill="#33015A"/>
<path d="M2.02505 23.5938C2.05869 23.5518 2.08752 23.5227 2.1199 23.4911C2.1515 23.4601 2.18424 23.4318 2.21692 23.4038C2.28264 23.3484 2.35052 23.298 2.42063 23.2532C2.56054 23.1631 2.70759 23.0926 2.85723 23.0364C3.15766 22.9268 3.46992 22.8793 3.77983 22.8828C4.08993 22.8857 4.39786 22.9346 4.69852 23.0162C4.84931 23.0551 4.99739 23.1081 5.14486 23.1563L5.5882 23.3023C6.17998 23.4919 6.77332 23.6818 7.37645 23.8023C7.52723 23.8314 7.67885 23.8544 7.83072 23.8638C7.9821 23.8724 8.13589 23.87 8.28048 23.8235C8.35239 23.8001 8.42057 23.7625 8.47896 23.7086C8.53669 23.6557 8.58355 23.582 8.58751 23.4981C8.59238 23.4143 8.55525 23.3325 8.50713 23.2665C8.4589 23.1995 8.3975 23.1446 8.33755 23.0875C8.2168 22.9746 8.09335 22.8637 7.97916 22.7384C7.92227 22.6754 7.86724 22.6092 7.82002 22.5335C7.77485 22.4587 7.72961 22.3697 7.737 22.2653C7.74103 22.214 7.76223 22.1662 7.79035 22.1303C7.81858 22.094 7.85252 22.0671 7.88743 22.0447C7.95771 22.0009 8.03346 21.9736 8.11005 21.9569C8.26354 21.9235 8.41919 21.9254 8.57261 21.9377C8.88001 21.9648 9.18229 22.0332 9.48338 22.1027C9.7844 22.1731 10.0844 22.2484 10.3862 22.3113C10.6878 22.374 10.9916 22.4258 11.2972 22.4422C11.6017 22.4579 11.912 22.437 12.2023 22.3235C12.2744 22.2947 12.3454 22.2607 12.4099 22.2142C12.4733 22.1682 12.5341 22.1056 12.5522 22.021C12.5706 21.9363 12.5386 21.8476 12.4967 21.7747C12.454 21.7006 12.4003 21.6351 12.3444 21.5734C12.2318 21.45 12.1076 21.3421 11.987 21.2275C11.9274 21.1691 11.8659 21.1127 11.8161 21.0368C11.8041 21.0174 11.7925 20.9962 11.7872 20.969C11.7805 20.9419 11.7909 20.906 11.8096 20.8895C11.8458 20.8557 11.886 20.8487 11.9244 20.8401C11.9327 20.8383 11.9407 20.8449 11.9422 20.8549C11.9437 20.8649 11.9382 20.8745 11.93 20.8763L11.9297 20.8763L11.9291 20.8765C11.893 20.8835 11.854 20.8932 11.8292 20.917C11.8037 20.9391 11.8177 20.9807 11.8399 21.0154C11.8851 21.0848 11.9463 21.1425 12.0051 21.2001C12.1246 21.3146 12.2491 21.4236 12.363 21.5491C12.4196 21.612 12.4743 21.6789 12.5188 21.7566C12.562 21.8326 12.5985 21.9299 12.5772 22.0286C12.5555 22.1265 12.4885 22.1922 12.4229 22.2398C12.3557 22.2879 12.2831 22.3219 12.21 22.351C11.915 22.4657 11.6024 22.4835 11.2963 22.4696C10.9891 22.4544 10.6843 22.4037 10.3819 22.3422C10.0794 22.2805 9.77887 22.2065 9.47791 22.1375C9.17701 22.0694 8.87514 22.0025 8.57057 21.977C8.41865 21.9655 8.2651 21.9645 8.11654 21.9976C8.04241 22.014 7.96996 22.0408 7.90412 22.0822C7.83949 22.1226 7.77917 22.1856 7.77311 22.2696C7.76662 22.3531 7.80603 22.436 7.84976 22.5068C7.89487 22.5785 7.94876 22.6432 8.00475 22.7047C8.11744 22.8275 8.24029 22.9372 8.36188 23.05C8.42195 23.1068 8.48491 23.1623 8.53765 23.2347C8.58919 23.3051 8.63389 23.3974 8.62866 23.501C8.62374 23.605 8.56733 23.6906 8.50485 23.7482C8.44172 23.807 8.36789 23.8478 8.29214 23.8727C8.13973 23.9223 7.9827 23.9249 7.82879 23.917C7.67447 23.9081 7.5214 23.8855 7.36948 23.8569C6.76208 23.7383 6.16784 23.5508 5.57474 23.3636L5.13063 23.2195C4.98243 23.1709 4.83567 23.1217 4.68621 23.0855C4.38849 23.008 4.08386 22.969 3.78079 22.9766C3.47797 22.9847 3.1761 23.0451 2.89448 23.1685C2.75355 23.2295 2.61917 23.3099 2.49355 23.4038C2.43066 23.4507 2.37065 23.5025 2.31376 23.5577C2.28528 23.5853 2.25819 23.6146 2.2323 23.6446C2.20701 23.6736 2.17991 23.7078 2.16231 23.7344L2.16087 23.7365C2.12981 23.7834 2.07305 23.7912 2.03406 23.7539C1.99507 23.7165 1.98858 23.6482 2.01964 23.6013C2.0212 23.5988 2.02312 23.5962 2.02505 23.5938Z" fill="url(#paint0_linear_1147_14)"/>
<path d="M10.7634 9.52142C10.5145 9.66804 10.1826 9.87687 9.76454 9.96669C9.76454 9.96669 10.1507 9.98895 10.6293 9.91445C10.187 11.2496 9.75943 12.8334 9.40969 14.6759C8.5098 15.6993 7.29777 15.8966 7.29777 15.8966C8.09494 16.2782 9.20995 15.8851 9.20995 15.8851C8.69236 16.5354 7.12741 17.0928 6.2 17.3776C5.68878 17.5342 5.30138 18.0325 5.19799 18.6551C5.09779 19.2578 5.07226 20.0286 5.35754 20.7326C5.35754 20.7326 4.22914 21.7436 3.74219 22.9398C3.76964 22.7678 5.31609 13.1213 10.6345 6.84428L10.5803 6.89645C6.18667 11.4614 4.34087 19.2285 4.34087 19.2285C4.31534 19.1586 4.30261 19.0826 4.30261 19.0074C4.30261 18.9544 4.30897 18.9015 4.32111 18.8508C4.39001 18.5652 4.4481 18.3295 4.53557 18.0247C4.65553 17.5987 4.66514 17.138 4.56236 16.7042C4.30002 15.5948 4.29173 14.5016 4.3664 13.8705C4.37854 13.7722 4.40341 13.677 4.44047 13.5887L4.44113 13.5872C4.46733 13.9081 4.579 14.4916 5.02192 14.9315C5.02192 14.9315 4.6607 14.0601 4.75772 12.8478V12.8463C5.9844 10.1416 7.6489 8.21688 9.18388 6.88489C9.22346 7.09221 9.28918 7.32099 9.39707 7.50135C9.39707 7.50135 9.35749 7.14127 9.39389 6.70597C11.4713 4.96165 13.259 4.30834 13.3127 4.27148C13.2716 4.31925 11.9849 5.98834 10.7634 9.52142Z" fill="url(#paint1_linear_1147_14)"/>
<path d="M5.55674 16.893C5.55674 16.893 7.81163 9.16749 13.5252 4C13.5252 4 11.9995 6.20274 11.2989 8.90778C11.2989 8.90778 10.1422 9.78113 9.11551 10.1046C9.11551 10.1046 10.6063 9.77022 11.0951 9.56442C11.0951 9.56442 9.98092 12.3283 9.69983 14.1806C9.69983 14.1806 8.70455 15.2955 6.97241 15.5821C6.97241 15.5821 7.86864 15.8859 9.39737 15.5723C9.39737 15.5723 8.31912 16.6575 6.30837 17.1355C5.53535 17.3193 5.26953 17.8853 5.26953 17.8853L5.55674 16.893Z" fill="url(#paint2_linear_1147_14)"/>
<path d="M8.52281 16.6934C7.92316 17.1565 6.83969 17.3461 6.31604 17.5277C5.84207 17.692 5.5861 18.0457 5.46535 18.2706C5.3884 18.3777 5.375 18.4723 5.375 18.4723C5.83329 18.0607 7.07992 18.0092 7.07992 18.0092C6.67605 17.8908 6.37353 17.8883 6.16568 17.918C6.3 17.8603 6.45745 17.8032 6.64608 17.7446C8.27759 17.2373 8.52281 16.6934 8.52281 16.6934Z" fill="url(#paint3_linear_1147_14)"/>
<path d="M10.0844 8.38584C10.0844 8.38584 10.7444 8.3953 11.2576 8.01376C11.2576 8.01376 10.696 8.92353 9.47564 9.34576C9.52226 9.34041 10.2804 9.23982 10.7853 8.97419C10.7853 8.97419 9.98494 9.69276 8.96821 10.0521C8.96821 10.0521 8.08003 11.3947 7.40133 13.1883C7.40133 13.1883 8.6172 13.1246 9.53367 12.611C9.50814 12.6494 8.67079 13.8824 7.0439 14.3745C7.0439 14.3745 8.02867 14.4182 8.61522 14.1703C8.56927 14.1995 7.81956 14.5797 6.76006 14.83C6.76006 14.83 6.34309 15.8294 6.08778 16.6969C6.08778 16.6969 6.28356 16.8508 7.10193 16.6232C8.52685 16.227 9.35171 15.6029 9.39575 15.576C9.3543 15.6175 8.27881 16.6692 6.30795 17.1384C5.55932 17.3165 5.28611 17.8524 5.26953 17.8861L5.55608 16.8957C5.55608 16.8957 7.81031 9.17154 13.5232 4.00391C13.4678 4.06143 11.8036 5.62198 10.0844 8.38584Z" fill="url(#paint4_linear_1147_14)"/>
<defs>
<linearGradient id="paint0_linear_1147_14" x1="7.29158" y1="20.75" x2="7.29158" y2="24.0028" gradientUnits="userSpaceOnUse">
<stop stop-color="#1CECEA"/>
<stop offset="1" stop-color="#008AF1"/>
</linearGradient>
<linearGradient id="paint1_linear_1147_14" x1="8.52733" y1="13.1931" x2="8.52733" y2="27.2502" gradientUnits="userSpaceOnUse">
<stop stop-color="#33005A"/>
<stop offset="1" stop-color="#0D003B"/>
</linearGradient>
<linearGradient id="paint2_linear_1147_14" x1="6.72782" y1="18.0049" x2="12.4381" y2="8.13097" gradientUnits="userSpaceOnUse">
<stop stop-color="#ED008C"/>
<stop offset="1" stop-color="#FD962F"/>
</linearGradient>
<linearGradient id="paint3_linear_1147_14" x1="6.76641" y1="18.0287" x2="12.4767" y2="8.15478" gradientUnits="userSpaceOnUse">
<stop stop-color="#ED008C"/>
<stop offset="1" stop-color="#FD962F"/>
</linearGradient>
<linearGradient id="paint4_linear_1147_14" x1="6.30079" y1="18.5912" x2="12.6877" y2="8.82574" gradientUnits="userSpaceOnUse">
<stop stop-color="#ED008C"/>
<stop offset="1" stop-color="#FD962F"/>
</linearGradient>
</defs>
</svg>
